Coordinates
version=1
nRows=8
nColumns=36
inDegrees=yes

Units are S.I. units (second, meters, Newtons, ...)
If the header above contains a line with 'inDegrees', this indicates whether rotational values are in degrees (yes) or radians (no).

endheader
time	pelvis_tilt	pelvis_list	pelvis_rotation	pelvis_tx	pelvis_ty	pelvis_tz	hip_flexion_r	hip_adduction_r	hip_rotation_r	knee_angle_r	knee_angle_r_beta	ankle_angle_r	subtalar_angle_r	mtp_angle_r	hip_flexion_l	hip_adduction_l	hip_rotation_l	knee_angle_l	knee_angle_l_beta	ankle_angle_l	subtalar_angle_l	mtp_angle_l	lumbar_extension	lumbar_bending	lumbar_rotation	arm_flex_r	arm_add_r	arm_rot_r	elbow_flex_r	pro_sup_r	arm_flex_l	arm_add_l	arm_rot_l	elbow_flex_l	pro_sup_l
      2.93333330	    -32.35909817	     -0.08286671	     -1.89893498	      0.87658790	      0.62694744	     -0.08506444	     97.47118377	     -5.35917833	      6.87726071	    101.19889624	      1.76625394	     32.83710968	    -11.43168989	     -7.49999987	     99.61561617	     -2.67461977	     12.26159560	     98.39649104	      1.71734274	     22.42131803	    -12.13304392	     -7.49999987	    -38.42161043	     -3.51189828	      1.87703774	     82.16311420	    -14.78588400	     15.89616482	    105.61918673	     80.68928396	     84.59772904	    -22.68447079	     31.74410031	    109.70705915	     94.86980764
      2.95000000	    -31.92275993	     -0.09001807	     -1.78013989	      0.88587063	      0.63492211	     -0.08613613	     94.05355708	     -5.13784343	      7.22274901	    100.02121793	      1.74569957	     33.28686755	    -13.18312791	     -7.49999987	     96.58716738	     -2.63442975	     12.02217028	     97.18325042	      1.69616770	     23.82594569	    -11.67068851	     -7.49999987	    -36.35679707	     -3.97240051	      1.69576866	     75.73430519	    -15.44910752	     13.99699406	    103.99069218	     79.37238133	     76.73174372	    -23.73616597	     30.59386204	    107.00528731	     92.92173515
      2.96666670	    -31.46209360	      0.49802030	     -1.65755041	      0.87742369	      0.63724000	     -0.09406623	     92.07914856	     -5.25552619	      7.91856254	     99.12176070	      1.73000108	     33.27893550	    -14.73763827	     -7.49999987	     94.80671803	     -2.14955753	     11.19742345	     96.72095089	      1.68809905	     24.59708304	    -12.09592306	     -7.49999987	    -34.27711434	     -4.50193939	      0.89940061	     71.79905699	    -17.12460286	     11.85445107	     96.98829522	     80.07569975	     71.69626620	    -23.22196099	     28.99497373	    101.49613473	     93.23793324
      2.98333330	    -30.74626562	      0.70008732	     -1.99371948	      0.92040524	      0.65557349	     -0.07497118	     87.63415459	     -4.26284242	      8.05360841	     97.56535838	      1.70283674	     33.79521740	    -15.96913227	     -7.49999987	     90.70521326	     -2.86568467	     11.14353549	     95.20648052	      1.66166655	     26.18150851	    -10.99718796	     -7.49999987	    -31.43613951	     -6.01658081	      0.98776503	     61.67814215	    -16.74033861	     10.65871359	     95.27204272	     79.39311525	     59.92927055	    -25.53449532	     24.47899530	     95.76468219	     91.73466657
      3.00000000	    -29.23864537	      0.62116877	     -2.23688063	      0.93660223	      0.68931921	     -0.07754390	     80.52527393	     -4.04274321	      7.38964255	     92.93387927	      1.62200218	     33.33084715	    -17.26871416	     -7.49999987	     83.68271398	     -3.92884036	     10.57135931	     90.39265493	      1.57764945	     26.81458213	     -9.69239472	     -7.49999987	    -31.54438253	     -6.67046881	      1.45477110	     55.03896400	    -17.49395258	      9.49340687	     86.20252307	     78.37172105	     53.04859277	    -24.72752384	     19.42517722	     82.21386867	     88.60580558
      3.01666670	    -27.35490747	      1.09059561	     -2.38296422	      0.95259195	      0.71219152	     -0.08566312	     73.89005761	     -4.79226577	      7.26905553	     88.22413909	      1.53980171	     32.25269975	    -18.33528809	     -7.49999987	     76.38386049	     -4.58244620	      8.89341099	     85.21987920	      1.48736748	     26.81316397	     -8.40401580	     -7.49999987	    -32.42118229	     -7.28060985	      1.31164248	     46.56851557	    -18.93964146	      7.03020605	     77.73677928	     78.66080109	     45.33221935	    -22.50109272	     12.08165284	     67.63571082	     87.50756070
      3.03333330	    -26.00441660	      1.91973057	     -2.51284862	      0.95593096	      0.72209212	     -0.08662696	     69.77367437	     -5.56775846	      7.60600281	     84.99616174	      1.48346287	     31.32341241	    -18.95220421	     -7.49999987	     72.13023224	     -4.63224243	      7.16008052	     82.46691370	      1.43931917	     26.40032946	     -8.20740910	     -7.49999987	    -31.90762257	     -8.33365725	      0.14093767	     39.38967159	    -18.84087720	      4.71907446	     68.89355482	     79.72725006	     39.02467151	    -22.31935462	      5.87854229	     55.48733137	     88.32017940
      3.05000000	    -23.78397195	      2.57286388	     -2.15866340	      0.96094164	      0.74406189	     -0.09087180	     65.10793412	     -6.81890520	      7.64111370	     81.61515535	      1.42445318	     29.62304034	    -19.80245284	     -7.49999987	     67.11023553	     -3.84632996	      5.69632987	     79.35063350	      1.38492982	     25.76483613	     -8.74275197	     -7.49999987	    -32.45684430	     -8.99806424	     -2.31788032	     33.06314816	    -17.76282172	      2.58333438	     58.15656151	     77.90458955	     32.99668376	    -22.67414605	      0.58291897	     42.10440990	     85.20151457
